<svg xmlns="http://www.w3.org/2000/svg" viewBox="0 0 1200 420" role="img" aria-labelledby="title desc">
  <title id="title">君子经济学家</title>
  <desc id="desc">以经济学为根基，在现实任务中开放求知、形成证据并持续修正</desc>
  <defs>
    <linearGradient id="paper" x1="0" y1="0" x2="1" y2="1"><stop stop-color="#f5efe3"/><stop offset="1" stop-color="#e8ddca"/></linearGradient>
    <pattern id="grain" width="28" height="28" patternUnits="userSpaceOnUse"><circle cx="3" cy="5" r="1" fill="#6d5a43" opacity=".05"/><circle cx="19" cy="20" r=".8" fill="#6d5a43" opacity=".04"/></pattern>
  </defs>
  <rect width="1200" height="420" rx="24" fill="url(#paper)"/>
  <rect width="1200" height="420" rx="24" fill="url(#grain)"/>
  <rect x="0" y="348" width="1200" height="72" fill="#1d2422"/>
  <g transform="translate(58 52)">
    <rect width="206" height="240" rx="22" fill="none" stroke="#9a3027" stroke-width="10"/>
    <circle cx="103" cy="42" r="12" fill="#9a3027"/>
    <path d="M83 73h40M65 112h76M46 151h114M29 190h148" stroke="#9a3027" stroke-width="9" stroke-linecap="round"/>
    <text x="103" y="226" text-anchor="middle" font-family="serif" font-size="25" fill="#9a3027">君 子</text>
  </g>
  <text x="316" y="104" font-family="serif" font-size="60" fill="#1d2422">君子经济学家</text>
  <text x="320" y="145" font-family="Georgia,serif" font-size="18" letter-spacing="6" fill="#9a3027">JUNZI ECONOMIST</text>
  <text x="320" y="194" font-family="sans-serif" font-size="23" fill="#46514d">以经济学立其根，在现实任务中开放求知</text>
  <g font-family="serif" font-size="17" text-anchor="middle">
    <path d="M342 269H1077" stroke="#a99a82" stroke-width="1.5"/>
    <g transform="translate(342 269)"><circle r="32" fill="#922d25"/><text y="6" fill="#fff">问题</text></g>
    <g transform="translate(526 269)"><circle r="32" fill="#a6502d"/><text y="6" fill="#fff">理论</text></g>
    <g transform="translate(710 269)"><circle r="32" fill="#8a642f"/><text y="6" fill="#fff">情势</text></g>
    <g transform="translate(894 269)"><circle r="32" fill="#526248"/><text y="6" fill="#fff">证据</text></g>
    <g transform="translate(1077 269)"><circle r="32" fill="#394f52"/><text y="6" fill="#fff">修正</text></g>
  </g>
  <text x="320" y="326" font-family="sans-serif" font-size="14" fill="#766c5d">领域知识、制度事实、方法与工具随任务检索、检验和更新</text>
  <text x="58" y="391" font-family="sans-serif" font-size="13" letter-spacing="2" fill="#d9d3c7">DAO · FA · SHI · SHU · QI</text>
  <text x="1144" y="391" text-anchor="end" font-family="Georgia,serif" font-size="13" letter-spacing="3" fill="#d9d3c7">FYAPENG · 2026</text>
</svg>
